# xmcd
# Track frame offsets:
# 150
# 25402
# 39861
# 59006
# 73220
# 90681
# 105175
# 122185
# 141113
# 152558
# 173964
# 189735
# 204787
# 222805
# 232235
# 249152
#
# Disc length: 3863 seconds
# Revision: 0
# Processed by: cddbd v1.4PL0 Copyright (c) Steve Scherf et al.
# Submitted via: VisiTrax 2.9.3.171 - For more info visit www.synapsa.com
#
DISCID=df0f1510
DTITLE=Silos, The - Cuba
DYEAR=1987
DGENRE=Alt Country
TTITLE0=Tennessee Fire
TTITLE1=She Lives Up The Street
TTITLE2=For Always
TTITLE3=Margaret
TTITLE4=Mary's Getting Married
TTITLE5=Memories
TTITLE6=Just This Morning
TTITLE7=Going Round
TTITLE8=It's Alright
TTITLE9=All Falls Away
TTITLE10=Get Back My Name
TTITLE11=Maybe Everything
TTITLE12=Head Party
TTITLE13=Hook In My Lip
TTITLE14=You And Your Sister (live)
TTITLE15=Tennessee Fire (live)
EXTD=
EXTT0=
EXTT1=
EXTT2=
EXTT3=
EXTT4=
EXTT5=
EXTT6=
EXTT7=
EXTT8=
EXTT9=
EXTT10=
EXTT11=
EXTT12=
EXTT13=
EXTT14=
EXTT15=
PLAYORDER=
